<svg width="181" height="28" viewBox="0 0 181 28" fill="none" xmlns="http://www.w3.org/2000/svg">
<path d="M33.404 21V8.31H41.774V10.128H35.726V13.728H41.36V15.546H35.726V21H33.404ZM43.5248 21V11.91H45.7748V21H43.5248ZM43.3988 10.2V8.004H45.9008V10.2H43.3988ZM48.2181 21V14.178C48.2181 13.806 48.2061 13.428 48.1821 13.044C48.1581 12.66 48.1221 12.282 48.0741 11.91H50.2521L50.4321 13.71H50.2161C50.5041 13.074 50.9301 12.588 51.4941 12.252C52.0581 11.904 52.7121 11.73 53.4561 11.73C54.5241 11.73 55.3281 12.03 55.8681 12.63C56.4081 13.23 56.6781 14.166 56.6781 15.438V21H54.4281V15.546C54.4281 14.814 54.2841 14.292 53.9961 13.98C53.7201 13.656 53.3001 13.494 52.7361 13.494C52.0401 13.494 51.4881 13.71 51.0801 14.142C50.6721 14.574 50.4681 15.15 50.4681 15.87V21H48.2181ZM62.5738 21.18C61.7818 21.18 61.0858 20.994 60.4858 20.622C59.8858 20.238 59.4178 19.692 59.0818 18.984C58.7458 18.276 58.5778 17.43 58.5778 16.446C58.5778 15.462 58.7458 14.622 59.0818 13.926C59.4178 13.218 59.8858 12.678 60.4858 12.306C61.0858 11.922 61.7818 11.73 62.5738 11.73C63.3418 11.73 64.0138 11.922 64.5898 12.306C65.1778 12.678 65.5678 13.182 65.7598 13.818H65.5618L65.7598 11.91H67.9198C67.8838 12.282 67.8478 12.66 67.8118 13.044C67.7878 13.428 67.7758 13.806 67.7758 14.178V21H65.5438L65.5258 19.128H65.7418C65.5498 19.752 65.1598 20.25 64.5718 20.622C63.9838 20.994 63.3178 21.18 62.5738 21.18ZM63.2038 19.452C63.9118 19.452 64.4818 19.206 64.9138 18.714C65.3458 18.21 65.5618 17.454 65.5618 16.446C65.5618 15.438 65.3458 14.688 64.9138 14.196C64.4818 13.704 63.9118 13.458 63.2038 13.458C62.4958 13.458 61.9258 13.704 61.4938 14.196C61.0618 14.688 60.8458 15.438 60.8458 16.446C60.8458 17.454 61.0558 18.21 61.4758 18.714C61.9078 19.206 62.4838 19.452 63.2038 19.452ZM70.226 21V14.178C70.226 13.806 70.214 13.428 70.19 13.044C70.166 12.66 70.13 12.282 70.082 11.91H72.26L72.44 13.71H72.224C72.512 13.074 72.938 12.588 73.502 12.252C74.066 11.904 74.72 11.73 75.464 11.73C76.532 11.73 77.336 12.03 77.876 12.63C78.416 13.23 78.686 14.166 78.686 15.438V21H76.436V15.546C76.436 14.814 76.292 14.292 76.004 13.98C75.728 13.656 75.308 13.494 74.744 13.494C74.048 13.494 73.496 13.71 73.088 14.142C72.68 14.574 72.476 15.15 72.476 15.87V21H70.226ZM85.2477 21.18C84.3117 21.18 83.4897 20.988 82.7817 20.604C82.0857 20.22 81.5457 19.674 81.1617 18.966C80.7777 18.246 80.5857 17.394 80.5857 16.41C80.5857 15.426 80.7777 14.586 81.1617 13.89C81.5577 13.194 82.1037 12.66 82.7997 12.288C83.4957 11.916 84.3117 11.73 85.2477 11.73C85.8477 11.73 86.4297 11.826 86.9937 12.018C87.5697 12.198 88.0377 12.462 88.3977 12.81L87.7137 14.376C87.3897 14.076 87.0237 13.854 86.6157 13.71C86.2197 13.554 85.8297 13.476 85.4457 13.476C84.6417 13.476 84.0117 13.728 83.5557 14.232C83.1117 14.736 82.8897 15.468 82.8897 16.428C82.8897 17.388 83.1117 18.126 83.5557 18.642C84.0117 19.158 84.6417 19.416 85.4457 19.416C85.8177 19.416 86.2017 19.344 86.5977 19.2C87.0057 19.056 87.3777 18.834 87.7137 18.534L88.3977 20.082C88.0257 20.43 87.5517 20.7 86.9757 20.892C86.4117 21.084 85.8357 21.18 85.2477 21.18ZM94.3582 21.18C92.8342 21.18 91.6402 20.76 90.7762 19.92C89.9122 19.08 89.4802 17.928 89.4802 16.464C89.4802 15.516 89.6662 14.688 90.0382 13.98C90.4102 13.272 90.9262 12.72 91.5862 12.324C92.2582 11.928 93.0382 11.73 93.9262 11.73C94.8022 11.73 95.5342 11.916 96.1222 12.288C96.7102 12.66 97.1542 13.182 97.4542 13.854C97.7662 14.526 97.9222 15.312 97.9222 16.212V16.806H91.2982V15.618H96.3202L96.0142 15.87C96.0142 15.03 95.8342 14.388 95.4742 13.944C95.1262 13.5 94.6162 13.278 93.9442 13.278C93.2002 13.278 92.6242 13.542 92.2162 14.07C91.8202 14.598 91.6222 15.336 91.6222 16.284V16.518C91.6222 17.502 91.8622 18.24 92.3422 18.732C92.8342 19.212 93.5242 19.452 94.4122 19.452C94.9282 19.452 95.4082 19.386 95.8522 19.254C96.3082 19.11 96.7402 18.882 97.1482 18.57L97.8142 20.082C97.3822 20.43 96.8662 20.7 96.2662 20.892C95.6662 21.084 95.0302 21.18 94.3582 21.18ZM104.965 21V8.31H106.999L111.661 18.804H111.103L115.765 8.31H117.781V21H115.675V11.586H116.323L112.057 21H110.671L106.405 11.586H107.071V21H104.965ZM123.939 21.18C123.147 21.18 122.451 20.994 121.851 20.622C121.251 20.238 120.783 19.692 120.447 18.984C120.111 18.276 119.943 17.43 119.943 16.446C119.943 15.462 120.111 14.622 120.447 13.926C120.783 13.218 121.251 12.678 121.851 12.306C122.451 11.922 123.147 11.73 123.939 11.73C124.707 11.73 125.379 11.922 125.955 12.306C126.543 12.678 126.933 13.182 127.125 13.818H126.927L127.125 11.91H129.285C129.249 12.282 129.213 12.66 129.177 13.044C129.153 13.428 129.141 13.806 129.141 14.178V21H126.909L126.891 19.128H127.107C126.915 19.752 126.525 20.25 125.937 20.622C125.349 20.994 124.683 21.18 123.939 21.18ZM124.569 19.452C125.277 19.452 125.847 19.206 126.279 18.714C126.711 18.21 126.927 17.454 126.927 16.446C126.927 15.438 126.711 14.688 126.279 14.196C125.847 13.704 125.277 13.458 124.569 13.458C123.861 13.458 123.291 13.704 122.859 14.196C122.427 14.688 122.211 15.438 122.211 16.446C122.211 17.454 122.421 18.21 122.841 18.714C123.273 19.206 123.849 19.452 124.569 19.452ZM131.591 21V14.178C131.591 13.806 131.579 13.428 131.555 13.044C131.531 12.66 131.495 12.282 131.447 11.91H133.625L133.805 13.71H133.589C133.877 13.074 134.303 12.588 134.867 12.252C135.431 11.904 136.085 11.73 136.829 11.73C137.897 11.73 138.701 12.03 139.241 12.63C139.781 13.23 140.051 14.166 140.051 15.438V21H137.801V15.546C137.801 14.814 137.657 14.292 137.369 13.98C137.093 13.656 136.673 13.494 136.109 13.494C135.413 13.494 134.861 13.71 134.453 14.142C134.045 14.574 133.841 15.15 133.841 15.87V21H131.591ZM145.947 21.18C145.155 21.18 144.459 20.994 143.859 20.622C143.259 20.238 142.791 19.692 142.455 18.984C142.119 18.276 141.951 17.43 141.951 16.446C141.951 15.462 142.119 14.622 142.455 13.926C142.791 13.218 143.259 12.678 143.859 12.306C144.459 11.922 145.155 11.73 145.947 11.73C146.715 11.73 147.387 11.922 147.963 12.306C148.551 12.678 148.941 13.182 149.133 13.818H148.935L149.133 11.91H151.293C151.257 12.282 151.221 12.66 151.185 13.044C151.161 13.428 151.149 13.806 151.149 14.178V21H148.917L148.899 19.128H149.115C148.923 19.752 148.533 20.25 147.945 20.622C147.357 20.994 146.691 21.18 145.947 21.18ZM146.577 19.452C147.285 19.452 147.855 19.206 148.287 18.714C148.719 18.21 148.935 17.454 148.935 16.446C148.935 15.438 148.719 14.688 148.287 14.196C147.855 13.704 147.285 13.458 146.577 13.458C145.869 13.458 145.299 13.704 144.867 14.196C144.435 14.688 144.219 15.438 144.219 16.446C144.219 17.454 144.429 18.21 144.849 18.714C145.281 19.206 145.857 19.452 146.577 19.452ZM157.811 25.032C156.971 25.032 156.209 24.942 155.525 24.762C154.853 24.582 154.253 24.306 153.725 23.934L154.211 22.314C154.559 22.542 154.919 22.728 155.291 22.872C155.663 23.016 156.047 23.124 156.443 23.196C156.839 23.268 157.241 23.304 157.649 23.304C158.489 23.304 159.113 23.094 159.521 22.674C159.941 22.266 160.151 21.678 160.151 20.91V18.732H160.331C160.139 19.356 159.749 19.854 159.161 20.226C158.585 20.598 157.919 20.784 157.163 20.784C156.347 20.784 155.633 20.604 155.021 20.244C154.421 19.872 153.953 19.344 153.617 18.66C153.281 17.976 153.113 17.172 153.113 16.248C153.113 15.324 153.281 14.526 153.617 13.854C153.953 13.17 154.421 12.648 155.021 12.288C155.633 11.916 156.347 11.73 157.163 11.73C157.931 11.73 158.597 11.916 159.161 12.288C159.737 12.648 160.121 13.14 160.313 13.764L160.151 13.656L160.331 11.91H162.509C162.461 12.282 162.425 12.66 162.401 13.044C162.377 13.428 162.365 13.806 162.365 14.178V20.64C162.365 22.068 161.975 23.154 161.195 23.898C160.427 24.654 159.299 25.032 157.811 25.032ZM157.775 19.056C158.495 19.056 159.065 18.816 159.485 18.336C159.917 17.844 160.133 17.148 160.133 16.248C160.133 15.348 159.917 14.658 159.485 14.178C159.065 13.698 158.495 13.458 157.775 13.458C157.043 13.458 156.461 13.698 156.029 14.178C155.597 14.658 155.381 15.348 155.381 16.248C155.381 17.148 155.597 17.844 156.029 18.336C156.461 18.816 157.043 19.056 157.775 19.056ZM169.188 21.18C167.664 21.18 166.47 20.76 165.606 19.92C164.742 19.08 164.31 17.928 164.31 16.464C164.31 15.516 164.496 14.688 164.868 13.98C165.24 13.272 165.756 12.72 166.416 12.324C167.088 11.928 167.868 11.73 168.756 11.73C169.632 11.73 170.364 11.916 170.952 12.288C171.54 12.66 171.984 13.182 172.284 13.854C172.596 14.526 172.752 15.312 172.752 16.212V16.806H166.128V15.618H171.15L170.844 15.87C170.844 15.03 170.664 14.388 170.304 13.944C169.956 13.5 169.446 13.278 168.774 13.278C168.03 13.278 167.454 13.542 167.046 14.07C166.65 14.598 166.452 15.336 166.452 16.284V16.518C166.452 17.502 166.692 18.24 167.172 18.732C167.664 19.212 168.354 19.452 169.242 19.452C169.758 19.452 170.238 19.386 170.682 19.254C171.138 19.11 171.57 18.882 171.978 18.57L172.644 20.082C172.212 20.43 171.696 20.7 171.096 20.892C170.496 21.084 169.86 21.18 169.188 21.18ZM174.64 21V14.232C174.64 13.848 174.628 13.458 174.604 13.062C174.592 12.666 174.562 12.282 174.514 11.91H176.692L176.944 14.394H176.584C176.704 13.794 176.902 13.296 177.178 12.9C177.466 12.504 177.814 12.21 178.222 12.018C178.63 11.826 179.074 11.73 179.554 11.73C179.77 11.73 179.944 11.742 180.076 11.766C180.208 11.778 180.34 11.808 180.472 11.856L180.454 13.836C180.226 13.74 180.028 13.68 179.86 13.656C179.704 13.632 179.506 13.62 179.266 13.62C178.75 13.62 178.312 13.728 177.952 13.944C177.604 14.16 177.34 14.46 177.16 14.844C176.992 15.228 176.908 15.666 176.908 16.158V21H174.64Z" fill="white"/>
<path d="M2.98797 12.4957L6.02737 7.23023H13.9752L18.9916 15.9208L20.0342 14.1157L15.0199 5.42511H5.69015C5.25374 5.42511 4.8526 5.65653 4.6344 6.03343L2.2981 10.0801C2.0799 10.457 2.0799 10.922 2.2981 11.2989L2.98797 12.4957Z" fill="url(#paint0_linear_4_6)"/>
<path d="M21.0062 12.4957L22.0487 10.6906L17.3849 2.61052C17.1667 2.23143 16.7633 2 16.3291 2H11.6565C11.2201 2 10.819 2.23143 10.6008 2.60832L9.91092 3.80512H15.9897L21.0062 12.4957Z" fill="url(#paint1_linear_4_6)"/>
<path d="M7.86996 17.3116L12.8864 8.62099H10.8014L5.78492 17.3116L10.4509 25.3917C10.6691 25.7686 11.0703 26 11.5067 26H16.1793C16.6157 26 17.0168 25.7686 17.235 25.3917L17.9249 24.1949H11.8461L7.87216 17.3116H7.86996Z" fill="url(#paint2_linear_4_6)"/>
<path d="M8.91469 8.59014H6.82964L2.16365 16.6702C1.94545 17.0471 1.94545 17.5122 2.16365 17.8891L4.49995 21.9357C4.71816 22.3126 5.11929 22.544 5.5557 22.544H6.93764L3.89825 17.2785L8.91469 8.59014Z" fill="url(#paint3_linear_4_6)"/>
<path d="M19.6529 17.5607H9.61998L10.6625 19.3658H20.6954L25.3614 11.2857C25.5796 10.9088 25.5796 10.4438 25.3614 10.0669L23.0251 6.0202C22.8069 5.64331 22.4057 5.41188 21.9693 5.41188H20.5874L23.6268 10.6774L19.6529 17.5607Z" fill="url(#paint4_linear_4_6)"/>
<path d="M24.6517 15.7511L21.6123 21.0166H11.5794L12.6219 22.8217H21.9517C22.3881 22.8217 22.7892 22.5903 23.0074 22.2134L25.3437 18.1668C25.5619 17.7899 25.5619 17.3248 25.3437 16.9479L24.6539 15.7511H24.6517Z" fill="url(#paint5_linear_4_6)"/>
<defs>
<linearGradient id="paint0_linear_4_6" x1="2" y1="2" x2="26" y2="26" gradientUnits="userSpaceOnUse">
<stop stop-color="#AAB6FB"/>
<stop offset="1" stop-color="#4324B6"/>
</linearGradient>
<linearGradient id="paint1_linear_4_6" x1="2" y1="2" x2="26" y2="26" gradientUnits="userSpaceOnUse">
<stop stop-color="#AAB6FB"/>
<stop offset="1" stop-color="#4324B6"/>
</linearGradient>
<linearGradient id="paint2_linear_4_6" x1="2" y1="2" x2="26" y2="26" gradientUnits="userSpaceOnUse">
<stop stop-color="#AAB6FB"/>
<stop offset="1" stop-color="#4324B6"/>
</linearGradient>
<linearGradient id="paint3_linear_4_6" x1="2" y1="2" x2="26" y2="26" gradientUnits="userSpaceOnUse">
<stop stop-color="#AAB6FB"/>
<stop offset="1" stop-color="#4324B6"/>
</linearGradient>
<linearGradient id="paint4_linear_4_6" x1="2" y1="2" x2="26" y2="26" gradientUnits="userSpaceOnUse">
<stop stop-color="#AAB6FB"/>
<stop offset="1" stop-color="#4324B6"/>
</linearGradient>
<linearGradient id="paint5_linear_4_6" x1="2" y1="2" x2="26" y2="26" gradientUnits="userSpaceOnUse">
<stop stop-color="#AAB6FB"/>
<stop offset="1" stop-color="#4324B6"/>
</linearGradient>
</defs>
</svg>
